<mxfile host="www.draw.io" modified="2020-12-02T03:13:20.728Z" agent="5.0 (Macintosh; Intel Mac OS X 10_13_1) AppleWebKit/537.36 (KHTML, like Gecko) Chrome/86.0.4240.198 Safari/537.36" etag="K6S8Cra8rBBdWz3IaNJO" version="13.6.2" type="github">
  <diagram id="R2lEEEUBdFMjLlhIrx00" name="Page-1">
    <mxGraphModel dx="1426" dy="914" grid="0" gridSize="10" guides="1" tooltips="1" connect="1" arrows="1" fold="1" page="1" pageScale="1" pageWidth="850" pageHeight="1100" math="0" shadow="0" extFonts="Permanent Marker^https://fonts.googleapis.com/css?family=Permanent+Marker">
      <root>
        <mxCell id="0" />
        <mxCell id="1" parent="0" />
        <mxCell id="C-vyLk0tnHw3VtMMgP7b-1" value="" style="edgeStyle=entityRelationEdgeStyle;endArrow=ERzeroToMany;startArrow=ERone;endFill=1;startFill=0;" parent="1" source="C-vyLk0tnHw3VtMMgP7b-24" target="C-vyLk0tnHw3VtMMgP7b-6" edge="1">
          <mxGeometry width="100" height="100" relative="1" as="geometry">
            <mxPoint x="340" y="720" as="sourcePoint" />
            <mxPoint x="440" y="620" as="targetPoint" />
          </mxGeometry>
        </mxCell>
        <mxCell id="C-vyLk0tnHw3VtMMgP7b-23" value="spd_model_label&lt;br&gt;意图标签" style="shape=table;startSize=30;container=1;collapsible=1;childLayout=tableLayout;fixedRows=1;rowLines=0;fontStyle=1;align=center;resizeLast=1;spacing=5;spacingTop=0;html=1;spacingBottom=0;" parent="1" vertex="1">
          <mxGeometry x="120" y="120" width="250" height="127" as="geometry" />
        </mxCell>
        <mxCell id="C-vyLk0tnHw3VtMMgP7b-24" value="" style="shape=partialRectangle;collapsible=0;dropTarget=0;pointerEvents=0;fillColor=none;points=[[0,0.5],[1,0.5]];portConstraint=eastwest;top=0;left=0;right=0;bottom=1;" parent="C-vyLk0tnHw3VtMMgP7b-23" vertex="1">
          <mxGeometry y="30" width="250" height="30" as="geometry" />
        </mxCell>
        <mxCell id="C-vyLk0tnHw3VtMMgP7b-25" value="PK" style="shape=partialRectangle;overflow=hidden;connectable=0;fillColor=none;top=0;left=0;bottom=0;right=0;fontStyle=1;" parent="C-vyLk0tnHw3VtMMgP7b-24" vertex="1">
          <mxGeometry width="30" height="30" as="geometry" />
        </mxCell>
        <mxCell id="C-vyLk0tnHw3VtMMgP7b-26" value="id" style="shape=partialRectangle;overflow=hidden;connectable=0;fillColor=none;top=0;left=0;bottom=0;right=0;align=left;spacingLeft=6;fontStyle=5;" parent="C-vyLk0tnHw3VtMMgP7b-24" vertex="1">
          <mxGeometry x="30" width="220" height="30" as="geometry" />
        </mxCell>
        <mxCell id="C-vyLk0tnHw3VtMMgP7b-27" value="" style="shape=partialRectangle;collapsible=0;dropTarget=0;pointerEvents=0;fillColor=none;points=[[0,0.5],[1,0.5]];portConstraint=eastwest;top=0;left=0;right=0;bottom=0;" parent="C-vyLk0tnHw3VtMMgP7b-23" vertex="1">
          <mxGeometry y="60" width="250" height="30" as="geometry" />
        </mxCell>
        <mxCell id="C-vyLk0tnHw3VtMMgP7b-28" value="" style="shape=partialRectangle;overflow=hidden;connectable=0;fillColor=none;top=0;left=0;bottom=0;right=0;" parent="C-vyLk0tnHw3VtMMgP7b-27" vertex="1">
          <mxGeometry width="30" height="30" as="geometry" />
        </mxCell>
        <mxCell id="C-vyLk0tnHw3VtMMgP7b-29" value="name varchar(50) NOT NULL" style="shape=partialRectangle;overflow=hidden;connectable=0;fillColor=none;top=0;left=0;bottom=0;right=0;align=left;spacingLeft=6;" parent="C-vyLk0tnHw3VtMMgP7b-27" vertex="1">
          <mxGeometry x="30" width="220" height="30" as="geometry" />
        </mxCell>
        <mxCell id="Qva0CkF_LmBE52HRVxiL-1" value="语料" style="whiteSpace=wrap;html=1;align=center;" vertex="1" parent="1">
          <mxGeometry x="200" y="800" width="100" height="40" as="geometry" />
        </mxCell>
        <mxCell id="Qva0CkF_LmBE52HRVxiL-3" style="edgeStyle=orthogonalEdgeStyle;rounded=0;orthogonalLoop=1;jettySize=auto;html=1;exitX=0.5;exitY=1;exitDx=0;exitDy=0;" edge="1" parent="1" source="Qva0CkF_LmBE52HRVxiL-2" target="Qva0CkF_LmBE52HRVxiL-1">
          <mxGeometry relative="1" as="geometry" />
        </mxCell>
        <mxCell id="Qva0CkF_LmBE52HRVxiL-8" value="" style="edgeStyle=orthogonalEdgeStyle;rounded=0;orthogonalLoop=1;jettySize=auto;html=1;" edge="1" parent="1" source="Qva0CkF_LmBE52HRVxiL-2" target="Qva0CkF_LmBE52HRVxiL-6">
          <mxGeometry relative="1" as="geometry" />
        </mxCell>
        <mxCell id="Qva0CkF_LmBE52HRVxiL-10" value="" style="edgeStyle=orthogonalEdgeStyle;rounded=0;orthogonalLoop=1;jettySize=auto;html=1;" edge="1" parent="1" source="Qva0CkF_LmBE52HRVxiL-2" target="Qva0CkF_LmBE52HRVxiL-9">
          <mxGeometry relative="1" as="geometry" />
        </mxCell>
        <mxCell id="Qva0CkF_LmBE52HRVxiL-2" value="意图标签" style="ellipse;whiteSpace=wrap;html=1;align=center;fillColor=#FFCC99;" vertex="1" parent="1">
          <mxGeometry x="200" y="720" width="100" height="40" as="geometry" />
        </mxCell>
        <mxCell id="Qva0CkF_LmBE52HRVxiL-5" value="" style="edgeStyle=orthogonalEdgeStyle;rounded=0;orthogonalLoop=1;jettySize=auto;html=1;" edge="1" parent="1" source="Qva0CkF_LmBE52HRVxiL-4" target="Qva0CkF_LmBE52HRVxiL-1">
          <mxGeometry relative="1" as="geometry" />
        </mxCell>
        <mxCell id="Qva0CkF_LmBE52HRVxiL-11" value="" style="edgeStyle=orthogonalEdgeStyle;rounded=0;orthogonalLoop=1;jettySize=auto;html=1;" edge="1" parent="1" source="Qva0CkF_LmBE52HRVxiL-4" target="Qva0CkF_LmBE52HRVxiL-9">
          <mxGeometry relative="1" as="geometry" />
        </mxCell>
        <mxCell id="Qva0CkF_LmBE52HRVxiL-4" value="意图标签" style="ellipse;whiteSpace=wrap;html=1;align=center;fillColor=#FFCC99;" vertex="1" parent="1">
          <mxGeometry x="350" y="800" width="100" height="40" as="geometry" />
        </mxCell>
        <mxCell id="Qva0CkF_LmBE52HRVxiL-6" value="语料" style="whiteSpace=wrap;html=1;align=center;" vertex="1" parent="1">
          <mxGeometry x="50" y="720" width="100" height="40" as="geometry" />
        </mxCell>
        <mxCell id="Qva0CkF_LmBE52HRVxiL-9" value="语料" style="whiteSpace=wrap;html=1;align=center;" vertex="1" parent="1">
          <mxGeometry x="350" y="720" width="100" height="40" as="geometry" />
        </mxCell>
        <mxCell id="Qva0CkF_LmBE52HRVxiL-13" value="" style="edgeStyle=orthogonalEdgeStyle;rounded=0;orthogonalLoop=1;jettySize=auto;html=1;" edge="1" parent="1" source="Qva0CkF_LmBE52HRVxiL-12" target="Qva0CkF_LmBE52HRVxiL-1">
          <mxGeometry relative="1" as="geometry" />
        </mxCell>
        <mxCell id="Qva0CkF_LmBE52HRVxiL-14" value="" style="edgeStyle=orthogonalEdgeStyle;rounded=0;orthogonalLoop=1;jettySize=auto;html=1;" edge="1" parent="1" source="Qva0CkF_LmBE52HRVxiL-12" target="Qva0CkF_LmBE52HRVxiL-6">
          <mxGeometry relative="1" as="geometry" />
        </mxCell>
        <mxCell id="Qva0CkF_LmBE52HRVxiL-12" value="意图标签" style="ellipse;whiteSpace=wrap;html=1;align=center;fillColor=#FFCC99;" vertex="1" parent="1">
          <mxGeometry x="50" y="800" width="100" height="40" as="geometry" />
        </mxCell>
        <mxCell id="Qva0CkF_LmBE52HRVxiL-15" value="是的，没错" style="whiteSpace=wrap;html=1;align=center;" vertex="1" parent="1">
          <mxGeometry x="200" y="1010" width="100" height="40" as="geometry" />
        </mxCell>
        <mxCell id="Qva0CkF_LmBE52HRVxiL-16" style="edgeStyle=orthogonalEdgeStyle;rounded=0;orthogonalLoop=1;jettySize=auto;html=1;exitX=0.5;exitY=1;exitDx=0;exitDy=0;" edge="1" parent="1" source="Qva0CkF_LmBE52HRVxiL-19" target="Qva0CkF_LmBE52HRVxiL-15">
          <mxGeometry relative="1" as="geometry" />
        </mxCell>
        <mxCell id="Qva0CkF_LmBE52HRVxiL-17" value="" style="edgeStyle=orthogonalEdgeStyle;rounded=0;orthogonalLoop=1;jettySize=auto;html=1;" edge="1" parent="1" source="Qva0CkF_LmBE52HRVxiL-19" target="Qva0CkF_LmBE52HRVxiL-23">
          <mxGeometry relative="1" as="geometry" />
        </mxCell>
        <mxCell id="Qva0CkF_LmBE52HRVxiL-18" value="" style="edgeStyle=orthogonalEdgeStyle;rounded=0;orthogonalLoop=1;jettySize=auto;html=1;" edge="1" parent="1" source="Qva0CkF_LmBE52HRVxiL-19" target="Qva0CkF_LmBE52HRVxiL-24">
          <mxGeometry relative="1" as="geometry" />
        </mxCell>
        <mxCell id="Qva0CkF_LmBE52HRVxiL-19" value="肯定" style="ellipse;whiteSpace=wrap;html=1;align=center;fillColor=#FFCC99;" vertex="1" parent="1">
          <mxGeometry x="200" y="930" width="100" height="40" as="geometry" />
        </mxCell>
        <mxCell id="Qva0CkF_LmBE52HRVxiL-20" value="" style="edgeStyle=orthogonalEdgeStyle;rounded=0;orthogonalLoop=1;jettySize=auto;html=1;" edge="1" parent="1" source="Qva0CkF_LmBE52HRVxiL-22" target="Qva0CkF_LmBE52HRVxiL-15">
          <mxGeometry relative="1" as="geometry" />
        </mxCell>
        <mxCell id="Qva0CkF_LmBE52HRVxiL-21" value="" style="edgeStyle=orthogonalEdgeStyle;rounded=0;orthogonalLoop=1;jettySize=auto;html=1;" edge="1" parent="1" source="Qva0CkF_LmBE52HRVxiL-22" target="Qva0CkF_LmBE52HRVxiL-24">
          <mxGeometry relative="1" as="geometry" />
        </mxCell>
        <mxCell id="Qva0CkF_LmBE52HRVxiL-22" value="确认" style="ellipse;whiteSpace=wrap;html=1;align=center;fillColor=#FFCC99;" vertex="1" parent="1">
          <mxGeometry x="350" y="1010" width="100" height="40" as="geometry" />
        </mxCell>
        <mxCell id="Qva0CkF_LmBE52HRVxiL-23" value="可以的" style="whiteSpace=wrap;html=1;align=center;" vertex="1" parent="1">
          <mxGeometry x="50" y="930" width="100" height="40" as="geometry" />
        </mxCell>
        <mxCell id="Qva0CkF_LmBE52HRVxiL-24" value="没问题的" style="whiteSpace=wrap;html=1;align=center;" vertex="1" parent="1">
          <mxGeometry x="350" y="930" width="100" height="40" as="geometry" />
        </mxCell>
        <mxCell id="Qva0CkF_LmBE52HRVxiL-25" value="" style="edgeStyle=orthogonalEdgeStyle;rounded=0;orthogonalLoop=1;jettySize=auto;html=1;" edge="1" parent="1" source="Qva0CkF_LmBE52HRVxiL-27" target="Qva0CkF_LmBE52HRVxiL-15">
          <mxGeometry relative="1" as="geometry" />
        </mxCell>
        <mxCell id="Qva0CkF_LmBE52HRVxiL-26" value="" style="edgeStyle=orthogonalEdgeStyle;rounded=0;orthogonalLoop=1;jettySize=auto;html=1;" edge="1" parent="1" source="Qva0CkF_LmBE52HRVxiL-27" target="Qva0CkF_LmBE52HRVxiL-23">
          <mxGeometry relative="1" as="geometry" />
        </mxCell>
        <mxCell id="Qva0CkF_LmBE52HRVxiL-27" value="是" style="ellipse;whiteSpace=wrap;html=1;align=center;fillColor=#FFCC99;" vertex="1" parent="1">
          <mxGeometry x="50" y="1010" width="100" height="40" as="geometry" />
        </mxCell>
        <mxCell id="Qva0CkF_LmBE52HRVxiL-28" value="" style="endArrow=none;dashed=1;html=1;" edge="1" parent="1">
          <mxGeometry width="50" height="50" relative="1" as="geometry">
            <mxPoint x="10" y="880" as="sourcePoint" />
            <mxPoint x="837" y="880" as="targetPoint" />
          </mxGeometry>
        </mxCell>
        <mxCell id="Qva0CkF_LmBE52HRVxiL-29" value="模型" style="whiteSpace=wrap;html=1;align=center;fillColor=#B9E0A5;" vertex="1" parent="1">
          <mxGeometry x="530" y="800" width="100" height="40" as="geometry" />
        </mxCell>
        <mxCell id="Qva0CkF_LmBE52HRVxiL-31" value="" style="edgeStyle=orthogonalEdgeStyle;rounded=0;orthogonalLoop=1;jettySize=auto;html=1;" edge="1" parent="1" source="Qva0CkF_LmBE52HRVxiL-30" target="Qva0CkF_LmBE52HRVxiL-29">
          <mxGeometry relative="1" as="geometry" />
        </mxCell>
        <mxCell id="Qva0CkF_LmBE52HRVxiL-30" value="糟位值" style="ellipse;whiteSpace=wrap;html=1;align=center;fillColor=#FFFFCC;" vertex="1" parent="1">
          <mxGeometry x="530" y="720" width="100" height="40" as="geometry" />
        </mxCell>
        <mxCell id="Qva0CkF_LmBE52HRVxiL-36" value="" style="edgeStyle=orthogonalEdgeStyle;rounded=0;orthogonalLoop=1;jettySize=auto;html=1;" edge="1" parent="1" source="Qva0CkF_LmBE52HRVxiL-34" target="Qva0CkF_LmBE52HRVxiL-29">
          <mxGeometry relative="1" as="geometry" />
        </mxCell>
        <mxCell id="Qva0CkF_LmBE52HRVxiL-34" value="糟位值" style="ellipse;whiteSpace=wrap;html=1;align=center;fillColor=#FFFFCC;" vertex="1" parent="1">
          <mxGeometry x="680" y="800" width="100" height="40" as="geometry" />
        </mxCell>
        <mxCell id="Qva0CkF_LmBE52HRVxiL-37" value="" style="endArrow=none;dashed=1;html=1;entryX=0;entryY=0.5;entryDx=0;entryDy=0;exitX=1;exitY=0.5;exitDx=0;exitDy=0;strokeColor=#3333FF;" edge="1" parent="1" source="Qva0CkF_LmBE52HRVxiL-4" target="Qva0CkF_LmBE52HRVxiL-30">
          <mxGeometry width="50" height="50" relative="1" as="geometry">
            <mxPoint x="470" y="860" as="sourcePoint" />
            <mxPoint x="300" y="830" as="targetPoint" />
            <Array as="points">
              <mxPoint x="490" y="790" />
            </Array>
          </mxGeometry>
        </mxCell>
        <mxCell id="Qva0CkF_LmBE52HRVxiL-38" value="是否本人" style="whiteSpace=wrap;html=1;align=center;fillColor=#B9E0A5;" vertex="1" parent="1">
          <mxGeometry x="530" y="1010" width="100" height="40" as="geometry" />
        </mxCell>
        <mxCell id="Qva0CkF_LmBE52HRVxiL-39" value="" style="edgeStyle=orthogonalEdgeStyle;rounded=0;orthogonalLoop=1;jettySize=auto;html=1;" edge="1" parent="1" source="Qva0CkF_LmBE52HRVxiL-40" target="Qva0CkF_LmBE52HRVxiL-38">
          <mxGeometry relative="1" as="geometry" />
        </mxCell>
        <mxCell id="Qva0CkF_LmBE52HRVxiL-40" value="确认" style="ellipse;whiteSpace=wrap;html=1;align=center;fillColor=#FFFFCC;" vertex="1" parent="1">
          <mxGeometry x="530" y="930" width="100" height="40" as="geometry" />
        </mxCell>
        <mxCell id="Qva0CkF_LmBE52HRVxiL-41" value="" style="edgeStyle=orthogonalEdgeStyle;rounded=0;orthogonalLoop=1;jettySize=auto;html=1;" edge="1" parent="1" source="Qva0CkF_LmBE52HRVxiL-42" target="Qva0CkF_LmBE52HRVxiL-38">
          <mxGeometry relative="1" as="geometry" />
        </mxCell>
        <mxCell id="Qva0CkF_LmBE52HRVxiL-42" value="不确认" style="ellipse;whiteSpace=wrap;html=1;align=center;fillColor=#FFFFCC;" vertex="1" parent="1">
          <mxGeometry x="680" y="1010" width="100" height="40" as="geometry" />
        </mxCell>
        <mxCell id="Qva0CkF_LmBE52HRVxiL-43" value="" style="endArrow=none;dashed=1;html=1;entryX=0;entryY=0.5;entryDx=0;entryDy=0;exitX=1;exitY=0.5;exitDx=0;exitDy=0;strokeColor=#3333FF;" edge="1" parent="1">
          <mxGeometry width="50" height="50" relative="1" as="geometry">
            <mxPoint x="450" y="1030" as="sourcePoint" />
            <mxPoint x="530" y="950" as="targetPoint" />
            <Array as="points">
              <mxPoint x="490" y="1000" />
            </Array>
          </mxGeometry>
        </mxCell>
        <mxCell id="Qva0CkF_LmBE52HRVxiL-44" value="没有问题的&#xa;&#xa;是的，没错" style="text;strokeColor=#666666;fillColor=#f5f5f5;spacingLeft=4;spacingRight=4;overflow=hidden;rotatable=0;points=[[0,0.5],[1,0.5]];portConstraint=eastwest;fontSize=12;fontColor=#333333;" vertex="1" parent="1">
          <mxGeometry x="700" y="890" width="140" height="60" as="geometry" />
        </mxCell>
        <mxCell id="Qva0CkF_LmBE52HRVxiL-45" value="" style="endArrow=none;dashed=1;html=1;entryX=0;entryY=0.5;entryDx=0;entryDy=0;exitX=1;exitY=0.5;exitDx=0;exitDy=0;strokeColor=#3333FF;" edge="1" parent="1" source="Qva0CkF_LmBE52HRVxiL-40" target="Qva0CkF_LmBE52HRVxiL-44">
          <mxGeometry width="50" height="50" relative="1" as="geometry">
            <mxPoint x="620" y="940" as="sourcePoint" />
            <mxPoint x="700" y="860" as="targetPoint" />
            <Array as="points">
              <mxPoint x="660" y="910" />
            </Array>
          </mxGeometry>
        </mxCell>
        <mxCell id="Qva0CkF_LmBE52HRVxiL-52" value="" style="edgeStyle=orthogonalEdgeStyle;rounded=0;orthogonalLoop=1;jettySize=auto;html=1;strokeColor=#3333FF;" edge="1" parent="1" source="Qva0CkF_LmBE52HRVxiL-46" target="Qva0CkF_LmBE52HRVxiL-51">
          <mxGeometry relative="1" as="geometry" />
        </mxCell>
        <mxCell id="C-vyLk0tnHw3VtMMgP7b-2" value="spd_model_dialog_data" style="shape=table;startSize=30;container=1;collapsible=1;childLayout=tableLayout;fixedRows=1;rowLines=0;fontStyle=1;align=center;resizeLast=1;" parent="1" vertex="1">
          <mxGeometry x="448" y="120" width="250" height="155" as="geometry">
            <mxRectangle x="448" y="120" width="164" height="30" as="alternateBounds" />
          </mxGeometry>
        </mxCell>
        <mxCell id="C-vyLk0tnHw3VtMMgP7b-3" value="" style="shape=partialRectangle;collapsible=0;dropTarget=0;pointerEvents=0;fillColor=none;points=[[0,0.5],[1,0.5]];portConstraint=eastwest;top=0;left=0;right=0;bottom=1;" parent="C-vyLk0tnHw3VtMMgP7b-2" vertex="1">
          <mxGeometry y="30" width="250" height="30" as="geometry" />
        </mxCell>
        <mxCell id="C-vyLk0tnHw3VtMMgP7b-4" value="PK" style="shape=partialRectangle;overflow=hidden;connectable=0;fillColor=none;top=0;left=0;bottom=0;right=0;fontStyle=1;" parent="C-vyLk0tnHw3VtMMgP7b-3" vertex="1">
          <mxGeometry width="30" height="30" as="geometry" />
        </mxCell>
        <mxCell id="C-vyLk0tnHw3VtMMgP7b-5" value="order_id int NOT NULL " style="shape=partialRectangle;overflow=hidden;connectable=0;fillColor=none;top=0;left=0;bottom=0;right=0;align=left;spacingLeft=6;fontStyle=5;" parent="C-vyLk0tnHw3VtMMgP7b-3" vertex="1">
          <mxGeometry x="30" width="220" height="30" as="geometry" />
        </mxCell>
        <mxCell id="C-vyLk0tnHw3VtMMgP7b-6" value="" style="shape=partialRectangle;collapsible=0;dropTarget=0;pointerEvents=0;fillColor=none;points=[[0,0.5],[1,0.5]];portConstraint=eastwest;top=0;left=0;right=0;bottom=0;" parent="C-vyLk0tnHw3VtMMgP7b-2" vertex="1">
          <mxGeometry y="60" width="250" height="30" as="geometry" />
        </mxCell>
        <mxCell id="C-vyLk0tnHw3VtMMgP7b-7" value="FK1" style="shape=partialRectangle;overflow=hidden;connectable=0;fillColor=none;top=0;left=0;bottom=0;right=0;" parent="C-vyLk0tnHw3VtMMgP7b-6" vertex="1">
          <mxGeometry width="30" height="30" as="geometry" />
        </mxCell>
        <mxCell id="C-vyLk0tnHw3VtMMgP7b-8" value="label        varchar(50)      NOT NULL" style="shape=partialRectangle;overflow=hidden;connectable=0;fillColor=none;top=0;left=0;bottom=0;right=0;align=left;spacingLeft=6;" parent="C-vyLk0tnHw3VtMMgP7b-6" vertex="1">
          <mxGeometry x="30" width="220" height="30" as="geometry" />
        </mxCell>
        <mxCell id="C-vyLk0tnHw3VtMMgP7b-9" value="" style="shape=partialRectangle;collapsible=0;dropTarget=0;pointerEvents=0;fillColor=none;points=[[0,0.5],[1,0.5]];portConstraint=eastwest;top=0;left=0;right=0;bottom=0;" parent="C-vyLk0tnHw3VtMMgP7b-2" vertex="1">
          <mxGeometry y="90" width="250" height="30" as="geometry" />
        </mxCell>
        <mxCell id="C-vyLk0tnHw3VtMMgP7b-10" value="" style="shape=partialRectangle;overflow=hidden;connectable=0;fillColor=none;top=0;left=0;bottom=0;right=0;" parent="C-vyLk0tnHw3VtMMgP7b-9" vertex="1">
          <mxGeometry width="30" height="30" as="geometry" />
        </mxCell>
        <mxCell id="C-vyLk0tnHw3VtMMgP7b-11" value="text          varchar(200)    NOT NULL" style="shape=partialRectangle;overflow=hidden;connectable=0;fillColor=none;top=0;left=0;bottom=0;right=0;align=left;spacingLeft=6;" parent="C-vyLk0tnHw3VtMMgP7b-9" vertex="1">
          <mxGeometry x="30" width="220" height="30" as="geometry" />
        </mxCell>
        <mxCell id="Qva0CkF_LmBE52HRVxiL-100" value="spd_model_dialog_data_draft" style="shape=table;startSize=30;container=1;collapsible=1;childLayout=tableLayout;fixedRows=1;rowLines=0;fontStyle=1;align=center;resizeLast=1;" vertex="1" parent="1">
          <mxGeometry x="450" y="313" width="250" height="193" as="geometry">
            <mxRectangle x="448" y="120" width="164" height="30" as="alternateBounds" />
          </mxGeometry>
        </mxCell>
        <mxCell id="Qva0CkF_LmBE52HRVxiL-101" value="" style="shape=partialRectangle;collapsible=0;dropTarget=0;pointerEvents=0;fillColor=none;points=[[0,0.5],[1,0.5]];portConstraint=eastwest;top=0;left=0;right=0;bottom=1;" vertex="1" parent="Qva0CkF_LmBE52HRVxiL-100">
          <mxGeometry y="30" width="250" height="30" as="geometry" />
        </mxCell>
        <mxCell id="Qva0CkF_LmBE52HRVxiL-102" value="PK" style="shape=partialRectangle;overflow=hidden;connectable=0;fillColor=none;top=0;left=0;bottom=0;right=0;fontStyle=1;" vertex="1" parent="Qva0CkF_LmBE52HRVxiL-101">
          <mxGeometry width="30" height="30" as="geometry" />
        </mxCell>
        <mxCell id="Qva0CkF_LmBE52HRVxiL-103" value="order_id int NOT NULL " style="shape=partialRectangle;overflow=hidden;connectable=0;fillColor=none;top=0;left=0;bottom=0;right=0;align=left;spacingLeft=6;fontStyle=5;" vertex="1" parent="Qva0CkF_LmBE52HRVxiL-101">
          <mxGeometry x="30" width="220" height="30" as="geometry" />
        </mxCell>
        <mxCell id="Qva0CkF_LmBE52HRVxiL-104" value="" style="shape=partialRectangle;collapsible=0;dropTarget=0;pointerEvents=0;fillColor=none;points=[[0,0.5],[1,0.5]];portConstraint=eastwest;top=0;left=0;right=0;bottom=0;" vertex="1" parent="Qva0CkF_LmBE52HRVxiL-100">
          <mxGeometry y="60" width="250" height="30" as="geometry" />
        </mxCell>
        <mxCell id="Qva0CkF_LmBE52HRVxiL-105" value="FK1" style="shape=partialRectangle;overflow=hidden;connectable=0;fillColor=none;top=0;left=0;bottom=0;right=0;" vertex="1" parent="Qva0CkF_LmBE52HRVxiL-104">
          <mxGeometry width="30" height="30" as="geometry" />
        </mxCell>
        <mxCell id="Qva0CkF_LmBE52HRVxiL-106" value="label        varchar(50)      NOT NULL" style="shape=partialRectangle;overflow=hidden;connectable=0;fillColor=none;top=0;left=0;bottom=0;right=0;align=left;spacingLeft=6;" vertex="1" parent="Qva0CkF_LmBE52HRVxiL-104">
          <mxGeometry x="30" width="220" height="30" as="geometry" />
        </mxCell>
        <mxCell id="Qva0CkF_LmBE52HRVxiL-107" value="" style="shape=partialRectangle;collapsible=0;dropTarget=0;pointerEvents=0;fillColor=none;points=[[0,0.5],[1,0.5]];portConstraint=eastwest;top=0;left=0;right=0;bottom=0;" vertex="1" parent="Qva0CkF_LmBE52HRVxiL-100">
          <mxGeometry y="90" width="250" height="30" as="geometry" />
        </mxCell>
        <mxCell id="Qva0CkF_LmBE52HRVxiL-108" value="" style="shape=partialRectangle;overflow=hidden;connectable=0;fillColor=none;top=0;left=0;bottom=0;right=0;" vertex="1" parent="Qva0CkF_LmBE52HRVxiL-107">
          <mxGeometry width="30" height="30" as="geometry" />
        </mxCell>
        <mxCell id="Qva0CkF_LmBE52HRVxiL-109" value="text          varchar(200)    NOT NULL" style="shape=partialRectangle;overflow=hidden;connectable=0;fillColor=none;top=0;left=0;bottom=0;right=0;align=left;spacingLeft=6;" vertex="1" parent="Qva0CkF_LmBE52HRVxiL-107">
          <mxGeometry x="30" width="220" height="30" as="geometry" />
        </mxCell>
        <mxCell id="Qva0CkF_LmBE52HRVxiL-112" value="spd_model_label&lt;br&gt;意图标签" style="shape=table;startSize=30;container=1;collapsible=1;childLayout=tableLayout;fixedRows=1;rowLines=0;fontStyle=1;align=center;resizeLast=1;spacing=5;spacingTop=0;html=1;spacingBottom=0;" vertex="1" parent="1">
          <mxGeometry x="120" y="313" width="250" height="127" as="geometry" />
        </mxCell>
        <mxCell id="Qva0CkF_LmBE52HRVxiL-113" value="" style="shape=partialRectangle;collapsible=0;dropTarget=0;pointerEvents=0;fillColor=none;points=[[0,0.5],[1,0.5]];portConstraint=eastwest;top=0;left=0;right=0;bottom=1;" vertex="1" parent="Qva0CkF_LmBE52HRVxiL-112">
          <mxGeometry y="30" width="250" height="30" as="geometry" />
        </mxCell>
        <mxCell id="Qva0CkF_LmBE52HRVxiL-114" value="PK" style="shape=partialRectangle;overflow=hidden;connectable=0;fillColor=none;top=0;left=0;bottom=0;right=0;fontStyle=1;" vertex="1" parent="Qva0CkF_LmBE52HRVxiL-113">
          <mxGeometry width="30" height="30" as="geometry" />
        </mxCell>
        <mxCell id="Qva0CkF_LmBE52HRVxiL-115" value="id" style="shape=partialRectangle;overflow=hidden;connectable=0;fillColor=none;top=0;left=0;bottom=0;right=0;align=left;spacingLeft=6;fontStyle=5;" vertex="1" parent="Qva0CkF_LmBE52HRVxiL-113">
          <mxGeometry x="30" width="220" height="30" as="geometry" />
        </mxCell>
        <mxCell id="Qva0CkF_LmBE52HRVxiL-116" value="" style="shape=partialRectangle;collapsible=0;dropTarget=0;pointerEvents=0;fillColor=none;points=[[0,0.5],[1,0.5]];portConstraint=eastwest;top=0;left=0;right=0;bottom=0;" vertex="1" parent="Qva0CkF_LmBE52HRVxiL-112">
          <mxGeometry y="60" width="250" height="30" as="geometry" />
        </mxCell>
        <mxCell id="Qva0CkF_LmBE52HRVxiL-117" value="" style="shape=partialRectangle;overflow=hidden;connectable=0;fillColor=none;top=0;left=0;bottom=0;right=0;" vertex="1" parent="Qva0CkF_LmBE52HRVxiL-116">
          <mxGeometry width="30" height="30" as="geometry" />
        </mxCell>
        <mxCell id="Qva0CkF_LmBE52HRVxiL-118" value="name varchar(50) NOT NULL" style="shape=partialRectangle;overflow=hidden;connectable=0;fillColor=none;top=0;left=0;bottom=0;right=0;align=left;spacingLeft=6;" vertex="1" parent="Qva0CkF_LmBE52HRVxiL-116">
          <mxGeometry x="30" width="220" height="30" as="geometry" />
        </mxCell>
        <mxCell id="Qva0CkF_LmBE52HRVxiL-46" value="标注" style="whiteSpace=wrap;html=1;align=center;" vertex="1" parent="1">
          <mxGeometry x="128" y="1294" width="100" height="40" as="geometry" />
        </mxCell>
        <mxCell id="Qva0CkF_LmBE52HRVxiL-50" value="" style="edgeStyle=orthogonalEdgeStyle;rounded=0;orthogonalLoop=1;jettySize=auto;html=1;strokeColor=#3333FF;" edge="1" parent="1" source="Qva0CkF_LmBE52HRVxiL-47" target="Qva0CkF_LmBE52HRVxiL-48">
          <mxGeometry relative="1" as="geometry" />
        </mxCell>
        <mxCell id="Qva0CkF_LmBE52HRVxiL-47" value="模型训练" style="whiteSpace=wrap;html=1;align=center;" vertex="1" parent="1">
          <mxGeometry x="541.5" y="1294" width="100" height="40" as="geometry" />
        </mxCell>
        <mxCell id="Qva0CkF_LmBE52HRVxiL-59" value="" style="edgeStyle=orthogonalEdgeStyle;rounded=0;orthogonalLoop=1;jettySize=auto;html=1;strokeColor=#3333FF;dashed=1;" edge="1" parent="1" source="Qva0CkF_LmBE52HRVxiL-48" target="Qva0CkF_LmBE52HRVxiL-58">
          <mxGeometry relative="1" as="geometry" />
        </mxCell>
        <mxCell id="Qva0CkF_LmBE52HRVxiL-48" value="模型发布" style="whiteSpace=wrap;html=1;align=center;" vertex="1" parent="1">
          <mxGeometry x="541.5" y="1378" width="100" height="40" as="geometry" />
        </mxCell>
        <mxCell id="Qva0CkF_LmBE52HRVxiL-54" value="" style="edgeStyle=orthogonalEdgeStyle;rounded=0;orthogonalLoop=1;jettySize=auto;html=1;strokeColor=#3333FF;" edge="1" parent="1" source="Qva0CkF_LmBE52HRVxiL-51" target="Qva0CkF_LmBE52HRVxiL-53">
          <mxGeometry relative="1" as="geometry" />
        </mxCell>
        <mxCell id="Qva0CkF_LmBE52HRVxiL-51" value="添加语料库" style="whiteSpace=wrap;html=1;align=center;" vertex="1" parent="1">
          <mxGeometry x="128" y="1378" width="100" height="40" as="geometry" />
        </mxCell>
        <mxCell id="Qva0CkF_LmBE52HRVxiL-56" value="" style="edgeStyle=orthogonalEdgeStyle;rounded=0;orthogonalLoop=1;jettySize=auto;html=1;strokeColor=#4D4D4D;" edge="1" parent="1" source="Qva0CkF_LmBE52HRVxiL-53" target="Qva0CkF_LmBE52HRVxiL-55">
          <mxGeometry relative="1" as="geometry" />
        </mxCell>
        <mxCell id="Qva0CkF_LmBE52HRVxiL-62" value="人工" style="edgeLabel;html=1;align=center;verticalAlign=middle;resizable=0;points=[];" vertex="1" connectable="0" parent="Qva0CkF_LmBE52HRVxiL-56">
          <mxGeometry x="-0.028" y="-2" relative="1" as="geometry">
            <mxPoint x="2" y="-16" as="offset" />
          </mxGeometry>
        </mxCell>
        <mxCell id="Qva0CkF_LmBE52HRVxiL-53" value="语料标注" style="whiteSpace=wrap;html=1;align=center;" vertex="1" parent="1">
          <mxGeometry x="128" y="1462" width="100" height="40" as="geometry" />
        </mxCell>
        <mxCell id="Qva0CkF_LmBE52HRVxiL-55" value="语料库" style="ellipse;whiteSpace=wrap;html=1;align=center;fillColor=#FFCC99;" vertex="1" parent="1">
          <mxGeometry x="335" y="1462" width="100" height="40" as="geometry" />
        </mxCell>
        <mxCell id="Qva0CkF_LmBE52HRVxiL-58" value="模型语料&lt;br&gt;离线处理" style="whiteSpace=wrap;html=1;align=center;" vertex="1" parent="1">
          <mxGeometry x="541.5" y="1462" width="100" height="40" as="geometry" />
        </mxCell>
        <mxCell id="Qva0CkF_LmBE52HRVxiL-61" value="" style="edgeStyle=orthogonalEdgeStyle;rounded=0;orthogonalLoop=1;jettySize=auto;html=1;exitX=0;exitY=0.5;exitDx=0;exitDy=0;entryX=1;entryY=0.5;entryDx=0;entryDy=0;strokeColor=#4D4D4D;" edge="1" parent="1" source="Qva0CkF_LmBE52HRVxiL-58" target="Qva0CkF_LmBE52HRVxiL-55">
          <mxGeometry relative="1" as="geometry">
            <mxPoint x="574" y="1474" as="sourcePoint" />
            <mxPoint x="680" y="1474" as="targetPoint" />
          </mxGeometry>
        </mxCell>
        <mxCell id="Qva0CkF_LmBE52HRVxiL-63" value="自动" style="edgeLabel;html=1;align=center;verticalAlign=middle;resizable=0;points=[];" vertex="1" connectable="0" parent="Qva0CkF_LmBE52HRVxiL-61">
          <mxGeometry x="0.0182" y="1" relative="1" as="geometry">
            <mxPoint x="-2" y="-14" as="offset" />
          </mxGeometry>
        </mxCell>
        <mxCell id="Qva0CkF_LmBE52HRVxiL-73" value="" style="edgeStyle=orthogonalEdgeStyle;rounded=0;orthogonalLoop=1;jettySize=auto;html=1;dashed=1;strokeColor=#4D4D4D;" edge="1" parent="1" source="Qva0CkF_LmBE52HRVxiL-64" target="Qva0CkF_LmBE52HRVxiL-71">
          <mxGeometry relative="1" as="geometry" />
        </mxCell>
        <mxCell id="Qva0CkF_LmBE52HRVxiL-64" value="" style="aspect=fixed;html=1;points=[];align=center;image;fontSize=12;image=img/lib/mscae/Event_Hubs.svg;fillColor=#FFFFCC;" vertex="1" parent="1">
          <mxGeometry x="316" y="1757" width="116.16" height="121" as="geometry" />
        </mxCell>
        <mxCell id="Qva0CkF_LmBE52HRVxiL-65" value="spd publish&amp;nbsp;" style="html=1;outlineConnect=0;whiteSpace=wrap;fillColor=#ffff99;shape=mxgraph.archimate3.application;appType=event;archiType=rounded;" vertex="1" parent="1">
          <mxGeometry x="70" y="1770" width="108" height="41" as="geometry" />
        </mxCell>
        <mxCell id="Qva0CkF_LmBE52HRVxiL-66" value="spd data init&amp;nbsp;" style="html=1;outlineConnect=0;whiteSpace=wrap;fillColor=#ffff99;shape=mxgraph.archimate3.application;appType=event;archiType=rounded;" vertex="1" parent="1">
          <mxGeometry x="72" y="1845" width="108" height="41" as="geometry" />
        </mxCell>
        <mxCell id="Qva0CkF_LmBE52HRVxiL-67" value="" style="endArrow=none;html=1;dashed=1;strokeColor=#4D4D4D;exitX=1;exitY=0.5;exitDx=0;exitDy=0;exitPerimeter=0;entryX=-0.026;entryY=0.496;entryDx=0;entryDy=0;entryPerimeter=0;" edge="1" parent="1" source="Qva0CkF_LmBE52HRVxiL-65" target="Qva0CkF_LmBE52HRVxiL-64">
          <mxGeometry width="50" height="50" relative="1" as="geometry">
            <mxPoint x="390" y="1853" as="sourcePoint" />
            <mxPoint x="440" y="1803" as="targetPoint" />
          </mxGeometry>
        </mxCell>
        <mxCell id="Qva0CkF_LmBE52HRVxiL-68" value="" style="endArrow=none;html=1;dashed=1;strokeColor=#4D4D4D;exitX=1;exitY=0.5;exitDx=0;exitDy=0;exitPerimeter=0;" edge="1" parent="1" source="Qva0CkF_LmBE52HRVxiL-66">
          <mxGeometry width="50" height="50" relative="1" as="geometry">
            <mxPoint x="233" y="1896" as="sourcePoint" />
            <mxPoint x="312" y="1819" as="targetPoint" />
          </mxGeometry>
        </mxCell>
        <mxCell id="Qva0CkF_LmBE52HRVxiL-69" value="&lt;span style=&quot;color: rgb(0 , 0 , 0) ; font-family: &amp;#34;helvetica&amp;#34; ; font-size: 12px ; font-style: normal ; font-weight: 400 ; letter-spacing: normal ; text-align: center ; text-indent: 0px ; text-transform: none ; word-spacing: 0px ; background-color: rgb(248 , 249 , 250) ; display: inline ; float: none&quot;&gt;spd event bus&lt;/span&gt;" style="text;whiteSpace=wrap;html=1;" vertex="1" parent="1">
          <mxGeometry x="330.08" y="1886" width="88" height="28" as="geometry" />
        </mxCell>
        <mxCell id="Qva0CkF_LmBE52HRVxiL-70" style="edgeStyle=orthogonalEdgeStyle;rounded=0;orthogonalLoop=1;jettySize=auto;html=1;exitX=0.5;exitY=1;exitDx=0;exitDy=0;dashed=1;strokeColor=#4D4D4D;" edge="1" parent="1" source="Qva0CkF_LmBE52HRVxiL-69" target="Qva0CkF_LmBE52HRVxiL-69">
          <mxGeometry relative="1" as="geometry" />
        </mxCell>
        <mxCell id="Qva0CkF_LmBE52HRVxiL-75" value="" style="edgeStyle=orthogonalEdgeStyle;rounded=0;orthogonalLoop=1;jettySize=auto;html=1;dashed=1;strokeColor=#4D4D4D;" edge="1" parent="1" source="Qva0CkF_LmBE52HRVxiL-71" target="Qva0CkF_LmBE52HRVxiL-74">
          <mxGeometry relative="1" as="geometry" />
        </mxCell>
        <mxCell id="Qva0CkF_LmBE52HRVxiL-71" value="comsume &lt;br&gt;evnt" style="html=1;outlineConnect=0;whiteSpace=wrap;fillColor=#FFE0E0;shape=mxgraph.archimate3.event;" vertex="1" parent="1">
          <mxGeometry x="550" y="1800" width="103" height="35" as="geometry" />
        </mxCell>
        <mxCell id="Qva0CkF_LmBE52HRVxiL-77" value="" style="edgeStyle=orthogonalEdgeStyle;rounded=0;orthogonalLoop=1;jettySize=auto;html=1;dashed=1;strokeColor=#4D4D4D;" edge="1" parent="1" source="Qva0CkF_LmBE52HRVxiL-74" target="Qva0CkF_LmBE52HRVxiL-76">
          <mxGeometry relative="1" as="geometry" />
        </mxCell>
        <mxCell id="Qva0CkF_LmBE52HRVxiL-74" value="parse spd content" style="whiteSpace=wrap;html=1;fillColor=#FFE0E0;" vertex="1" parent="1">
          <mxGeometry x="541.5" y="1878" width="120" height="32" as="geometry" />
        </mxCell>
        <mxCell id="Qva0CkF_LmBE52HRVxiL-79" value="" style="edgeStyle=orthogonalEdgeStyle;rounded=0;orthogonalLoop=1;jettySize=auto;html=1;dashed=1;strokeColor=#4D4D4D;" edge="1" parent="1" source="Qva0CkF_LmBE52HRVxiL-76" target="Qva0CkF_LmBE52HRVxiL-78">
          <mxGeometry relative="1" as="geometry" />
        </mxCell>
        <mxCell id="Qva0CkF_LmBE52HRVxiL-76" value="parse spd node" style="whiteSpace=wrap;html=1;fillColor=#FFE0E0;" vertex="1" parent="1">
          <mxGeometry x="541.5" y="1955" width="120" height="32" as="geometry" />
        </mxCell>
        <mxCell id="Qva0CkF_LmBE52HRVxiL-81" value="" style="edgeStyle=orthogonalEdgeStyle;rounded=0;orthogonalLoop=1;jettySize=auto;html=1;dashed=1;strokeColor=#4D4D4D;" edge="1" parent="1" source="Qva0CkF_LmBE52HRVxiL-78" target="Qva0CkF_LmBE52HRVxiL-80">
          <mxGeometry relative="1" as="geometry" />
        </mxCell>
        <mxCell id="Qva0CkF_LmBE52HRVxiL-78" value="parse share model" style="whiteSpace=wrap;html=1;fillColor=#FFE0E0;" vertex="1" parent="1">
          <mxGeometry x="541.5" y="2034" width="120" height="32" as="geometry" />
        </mxCell>
        <mxCell id="Qva0CkF_LmBE52HRVxiL-80" value="update model" style="whiteSpace=wrap;html=1;fillColor=#FFE0E0;" vertex="1" parent="1">
          <mxGeometry x="541.5" y="2113" width="120" height="32" as="geometry" />
        </mxCell>
        <mxCell id="Qva0CkF_LmBE52HRVxiL-83" value="运营者" style="shape=umlActor;verticalLabelPosition=bottom;verticalAlign=top;html=1;outlineConnect=0;fillColor=#FFFFCC;" vertex="1" parent="1">
          <mxGeometry x="370" y="1284" width="30" height="60" as="geometry" />
        </mxCell>
        <mxCell id="Qva0CkF_LmBE52HRVxiL-85" value="" style="edgeStyle=orthogonalEdgeStyle;rounded=0;orthogonalLoop=1;jettySize=auto;html=1;strokeColor=#3333FF;entryX=1;entryY=0.5;entryDx=0;entryDy=0;" edge="1" parent="1" source="Qva0CkF_LmBE52HRVxiL-83" target="Qva0CkF_LmBE52HRVxiL-46">
          <mxGeometry relative="1" as="geometry">
            <mxPoint x="188" y="1344" as="sourcePoint" />
            <mxPoint x="188" y="1388" as="targetPoint" />
          </mxGeometry>
        </mxCell>
        <mxCell id="Qva0CkF_LmBE52HRVxiL-87" value="在线训练" style="edgeLabel;html=1;align=center;verticalAlign=middle;resizable=0;points=[];" vertex="1" connectable="0" parent="Qva0CkF_LmBE52HRVxiL-85">
          <mxGeometry x="0.0986" relative="1" as="geometry">
            <mxPoint x="8" y="-14" as="offset" />
          </mxGeometry>
        </mxCell>
        <mxCell id="Qva0CkF_LmBE52HRVxiL-86" value="" style="edgeStyle=orthogonalEdgeStyle;rounded=0;orthogonalLoop=1;jettySize=auto;html=1;strokeColor=#3333FF;entryX=0;entryY=0.5;entryDx=0;entryDy=0;" edge="1" parent="1" source="Qva0CkF_LmBE52HRVxiL-83" target="Qva0CkF_LmBE52HRVxiL-47">
          <mxGeometry relative="1" as="geometry">
            <mxPoint x="380" y="1324" as="sourcePoint" />
            <mxPoint x="238" y="1324" as="targetPoint" />
          </mxGeometry>
        </mxCell>
        <mxCell id="Qva0CkF_LmBE52HRVxiL-88" value="模型冷启动" style="edgeLabel;html=1;align=center;verticalAlign=middle;resizable=0;points=[];" vertex="1" connectable="0" parent="Qva0CkF_LmBE52HRVxiL-86">
          <mxGeometry x="0.0035" y="2" relative="1" as="geometry">
            <mxPoint y="-12" as="offset" />
          </mxGeometry>
        </mxCell>
        <mxCell id="Qva0CkF_LmBE52HRVxiL-93" value="times int                NOT NULL" style="shape=partialRectangle;overflow=hidden;connectable=0;fillColor=none;top=0;left=0;bottom=0;right=0;align=left;spacingLeft=6;" vertex="1" parent="1">
          <mxGeometry x="150" y="209" width="220" height="30" as="geometry" />
        </mxCell>
        <mxCell id="Qva0CkF_LmBE52HRVxiL-98" value="weight     int                     NOT NULL" style="shape=partialRectangle;overflow=hidden;connectable=0;fillColor=none;top=0;left=0;bottom=0;right=0;align=left;spacingLeft=6;" vertex="1" parent="1">
          <mxGeometry x="478" y="241" width="220" height="30" as="geometry" />
        </mxCell>
        <mxCell id="Qva0CkF_LmBE52HRVxiL-110" value="chat          varchar(200)    NOT NULL" style="shape=partialRectangle;overflow=hidden;connectable=0;fillColor=none;top=0;left=0;bottom=0;right=0;align=left;spacingLeft=6;" vertex="1" parent="1">
          <mxGeometry x="480" y="435" width="220" height="30" as="geometry" />
        </mxCell>
        <mxCell id="Qva0CkF_LmBE52HRVxiL-111" value="is_existed int                    NOT NULL" style="shape=partialRectangle;overflow=hidden;connectable=0;fillColor=none;top=0;left=0;bottom=0;right=0;align=left;spacingLeft=6;" vertex="1" parent="1">
          <mxGeometry x="480" y="465" width="220" height="30" as="geometry" />
        </mxCell>
      </root>
    </mxGraphModel>
  </diagram>
</mxfile>
